<svg width="16" height="17" viewBox="0 0 16 17" fill="none" xmlns="http://www.w3.org/2000/svg">
<path d="M15.7656 15.5239L10.6934 10.198C11.4805 9.12959 11.9062 7.82324 11.9062 6.44922C11.9062 4.80449 11.2949 3.2623 10.1895 2.09951C9.08398 0.936719 7.61133 0.296875 6.04688 0.296875C4.48242 0.296875 3.00977 0.938769 1.9043 2.09951C0.796875 3.26025 0.1875 4.80449 0.1875 6.44922C0.1875 8.09189 0.798828 9.63818 1.9043 10.7989C3.00977 11.9617 4.48047 12.6016 6.04688 12.6016C7.35547 12.6016 8.59766 12.1545 9.61523 11.3301L14.6875 16.6539C14.7024 16.6695 14.72 16.6819 14.7395 16.6904C14.7589 16.6988 14.7797 16.7032 14.8008 16.7032C14.8218 16.7032 14.8427 16.6988 14.8621 16.6904C14.8815 16.6819 14.8992 16.6695 14.9141 16.6539L15.7656 15.7618C15.7805 15.7462 15.7923 15.7277 15.8004 15.7072C15.8084 15.6868 15.8126 15.665 15.8126 15.6429C15.8126 15.6208 15.8084 15.5989 15.8004 15.5785C15.7923 15.5581 15.7805 15.5395 15.7656 15.5239ZM9.14062 9.69766C8.3125 10.5651 7.21484 11.043 6.04688 11.043C4.87891 11.043 3.78125 10.5651 2.95312 9.69766C2.12695 8.82812 1.67188 7.67559 1.67188 6.44922C1.67188 5.22285 2.12695 4.06826 2.95312 3.20078C3.78125 2.3333 4.87891 1.85547 6.04688 1.85547C7.21484 1.85547 8.31445 2.33125 9.14062 3.20078C9.9668 4.07031 10.4219 5.22285 10.4219 6.44922C10.4219 7.67559 9.9668 8.83018 9.14062 9.69766Z" fill="#222222"/>
</svg>
