<svg width="373" height="279" viewBox="0 0 373 279" fill="none" xmlns="http://www.w3.org/2000/svg">
<path d="M329.15 58.1817C321.148 47.6496 305.308 47.6481 297.304 58.1785L181.663 210.307C178.063 215.044 172.456 217.825 166.507 217.825C160.556 217.825 154.948 215.042 151.348 210.304L129.074 180.99C121.071 170.457 105.231 170.456 97.2264 180.987L27.8546 272.255C21.8388 280.17 9.9348 280.171 3.91792 272.257C-0.170316 266.88 -0.170316 259.436 3.91792 254.059L97.9934 130.323C101.594 125.588 107.201 122.807 113.15 122.807C119.101 122.807 124.709 125.589 128.31 130.328L150.584 159.643C158.587 170.175 174.426 170.177 182.431 159.646L298.078 7.50797C301.674 2.77758 307.274 0 313.216 0C319.158 0 324.757 2.777 328.353 7.50656L369.093 61.0902C373.175 66.46 373.178 73.8928 369.099 79.2653C363.089 87.1811 351.187 87.1834 345.174 79.27L329.15 58.1817Z" fill="#9D9D9D" fill-opacity="0.14"/>
</svg>
